# xmcd CD database file
#
# Track frame offsets:
#	150
#	16134
#	33640
#	50829
#	66254
#	82802
#	102628
#	117575
#	137130
#	152728
#	170230
#	187046
#	199805
#	216425
#	232785
#	249394
#
# Disc length: 3508 seconds
#
# Revision: 1
# Processed by: cddbd v1.5.1PL2 Copyright (c) Steve Scherf et al.
# Submitted via: CDex 1.51
#
DISCID=ec0db210
DTITLE=Kenny Rogers - Hanky's Edition CD 2
DYEAR=2006
DGENRE=Country
TTITLE0=KENNY ROGERS - The Gambler
TTITLE1=KENNY ROGERS - I Can Feel You Drifting
TTITLE2=KENNY ROGERS - My World Is Over (With Whitney Duncan)
TTITLE3=KENNY ROGERS - I Can't Unlove You
TTITLE4=KENNY ROGERS - Don't Fall In Love With A Dreamer (With Kim Carnes) (Bonus Track)
TTITLE5=KENNY ROGERS - Through The Years
TTITLE6=KENNY ROGERS - I'm Missing You
TTITLE7=KENNY ROGERS - Coward Of The County
TTITLE8=KENNY ROGERS - I Dont Need You
TTITLE9=KENNY ROGERS - Lady
TTITLE10=KENNY ROGERS - The Last Ten Years (Superman)
TTITLE11=KENNY ROGERS - There You Go Again
TTITLE12=KENNY ROGERS - Crazy
TTITLE13=KENNY ROGERS - You Decorated My Life
TTITLE14=KENNY ROGERS - Lucille
TTITLE15=KENNY ROGERS - He Will  She Knows
EXTD=YEAR: 2006
EXTT0=
EXTT1=
EXTT2=
EXTT3=
EXTT4=
EXTT5=
EXTT6=
EXTT7=
EXTT8=
EXTT9=
EXTT10=
EXTT11=
EXTT12=
EXTT13=
EXTT14=
EXTT15=
PLAYORDER=
